<svg xmlns="http://www.w3.org/2000/svg" viewBox="0 0 302.25 72"><defs><style>.a{fill:#006747;}.b{fill:#fce300;}.c{fill:#fff;}.d{fill:#ef3340;}</style></defs><path class="a" d="M139.22,60.17l7.29-25.48a9.07,9.07,0,0,1,5.59-6h0l.19-.83H142.17L125,48.34h0l-6.59-20.49h-9.26l-.22.83c1.58.79,2.46,3.14,2.46,5v.12c0,10.92-8.08,29.68-19.43,29.68-4.41,0-6.7-3.12-6.7-5.72a5.42,5.42,0,0,1,5.41-5.39c2.69,0,3.11,1,4.66,1a2.6,2.6,0,0,0,2.3-1.31,2.56,2.56,0,0,0-1.13-3.53l-.71-.33a10,10,0,0,0-14.29,9v.1h0a10,10,0,0,0,9.54,10c13.77.49,23-18.1,24.45-31.71h0l1.06,3.68L122,55.58h2L141,35.36h0L133.84,60.2A8.37,8.37,0,0,1,127.9,66h0l-.2.83h13.63l.22-.83A5.15,5.15,0,0,1,139.22,60.17Z"/><path class="a" d="M173.43,41.72h-.11c-6.36,0-13.2.62-16.84,11C153.42,61.37,152.59,65,150.2,65c-1.52,0-1.15-3-3.44-3a2.23,2.23,0,0,0-2.19,2c-.14,2.07,2.65,3.32,4.75,3.32A9.9,9.9,0,0,0,159,60.51l1.33-3.63H167l-1.14,4.19A7.11,7.11,0,0,1,161.94,66l-.18.83h11L173,66a4.9,4.9,0,0,1-1.65-5l4.13-15.72a4.13,4.13,0,0,1,2.29-2.72l.18-.83h-4.48Zm-5.87,13.13H161c.74-2,1.45-3.94,1.69-4.56,1.65-4.36,4.78-6.13,7.82-6.37l0,0Z"/><path class="a" d="M228.88,43.51a4.85,4.85,0,0,0,.69-2h0a1.43,1.43,0,0,0-1.74-1.47h0a1.58,1.58,0,0,0-1.26,1.57,3.47,3.47,0,0,1-.48,2c-.77.95-2,.87-7.68-.76h0c-.52-.15-1.09-.32-1.69-.48l-.1,0h0c-2.83-.77-6.35-1.48-8.66-.33l-.05,0a8.14,8.14,0,0,0-4.31,5.75,6.82,6.82,0,0,0-.12.77h0a2,2,0,0,0,2.39,2h0a2.2,2.2,0,0,0,1.74-2.2c0-1.07-.23-2.5.35-3.45.93-1.32,1.9-1.41,6.26,0l-4.73,16A7.81,7.81,0,0,1,205.13,66l-.2.83h11.31l.22-.83a4.82,4.82,0,0,1-1.53-5l4.13-14.44a11.33,11.33,0,0,0,5.43,0l.65-.18A6.66,6.66,0,0,0,228.88,43.51Z"/><path class="a" d="M233.4,41.72l-.22.83a4,4,0,0,1,1.58,4.35l-4.2,14.16A7.82,7.82,0,0,1,226.2,66l-.2.83h20.29l1.82-6.64h-.86l-.3.64a6.85,6.85,0,0,1-6.18,3.88h-5.83L238,53.6h2.48a2.65,2.65,0,0,1,2.61,3.16H244l2-7.51h-.86a3.48,3.48,0,0,1-3.28,2.32h-3.28l2.16-7.71H247a3.19,3.19,0,0,1,3.13,3.83h.85l1.62-6Z"/><path class="a" d="M272.12,41.73H258.45l-.22.83a4,4,0,0,1,1.65,4l-4.27,14.47a7.86,7.86,0,0,1-4.36,5l-.2.83h11.29l.22-.83A4.86,4.86,0,0,1,261,61l2.07-7.37H264a2.57,2.57,0,0,1,2.55,2.28,70.89,70.89,0,0,0,1.22,7.3c.68,2.31,1.58,3.65,3.63,3.65h5.11l.2-.83-.74-.43A6.4,6.4,0,0,1,273,61.63c-.44-1.66-1.27-4.76-1.68-6.4A2.48,2.48,0,0,0,269,53.61h1.72a6.87,6.87,0,0,0,6.63-5h0A5.39,5.39,0,0,0,272.12,41.73Zm.23,6.05a5.33,5.33,0,0,1-5.1,3.8h-3.58l2.17-7.71h3.59A3,3,0,0,1,272.35,47.78Z"/><path class="a" d="M197.08,43a8.68,8.68,0,0,1-2.37-.76,9.59,9.59,0,0,0-3.68-.76,8.66,8.66,0,0,0-6.45,2.61,6.62,6.62,0,0,0-2.11,4.54,6.4,6.4,0,0,0,2.66,4.72c1.67,1.36,3.41,2.66,5.15,4S193,60.16,193,61.26c0,2.42-1.57,3.71-4.83,3.71s-5.58-2.42-6.32-6.95H181l-2.6,8.82h.83a5.13,5.13,0,0,1,3.39-1.23c1.49,0,3.07,1.74,6.46,1.74,2.7,0,4.84-.56,6.67-2.39a8.48,8.48,0,0,0,2.33-5.68,6.87,6.87,0,0,0-2.91-5.09c-1.6-1.22-3.3-2.32-4.95-3.51s-2.68-2.45-2.68-3.69a3,3,0,0,1,1-2.06c.87-.87,2-1.06,3.59-1.06,3.13,0,5.31,1.74,5.5,5.4h.82l2.18-7.78h-.82A3.69,3.69,0,0,1,197.08,43Z"/><path class="a" d="M293.75,43.87c3.12,0,5.31,1.74,5.49,5.4h.83l2.18-7.78h-.83A3.67,3.67,0,0,1,298.68,43a8.68,8.68,0,0,1-2.37-.76,9.62,9.62,0,0,0-3.68-.76,8.69,8.69,0,0,0-6.46,2.61,6.64,6.64,0,0,0-2.1,4.54,6.42,6.42,0,0,0,2.65,4.72c1.67,1.36,3.41,2.66,5.16,4s2.74,2.82,2.74,3.92c0,2.42-1.57,3.71-4.82,3.71s-5.59-2.42-6.32-6.95h-.89L280,66.84h.82a5.17,5.17,0,0,1,3.4-1.23c1.48,0,3.07,1.74,6.45,1.74,2.71,0,4.84-.56,6.68-2.39a8.53,8.53,0,0,0,2.33-5.68,6.85,6.85,0,0,0-2.92-5.09c-1.59-1.22-3.29-2.32-4.94-3.51s-2.68-2.45-2.68-3.69a3,3,0,0,1,1-2.06C291,44.06,292.19,43.87,293.75,43.87Z"/><path class="b" d="M73.35,23.56a1.12,1.12,0,0,0-1.12-1.12h-.86a2,2,0,0,0-1.67.91l-2.8,4.32a2.54,2.54,0,0,1-2.14,1.17H62.87a1.49,1.49,0,0,0-1.31.78,4.32,4.32,0,0,1-3.12,2.21V46.69c2.11.23,3.74,1.49,3.74,3s-2,3.06-4.43,3.06-4.42-1.37-4.42-3.06,1.62-2.8,3.73-3V31.83a4.32,4.32,0,0,1-3.12-2.21,1.49,1.49,0,0,0-1.31-.78H51.36a1.5,1.5,0,0,0-1.36.88l-1.06,2.37A2.07,2.07,0,0,1,47,33.33a2.11,2.11,0,0,1-1.91-1.24l-1-2.36a1.5,1.5,0,0,0-1.37-.89H7.38a2.17,2.17,0,0,1-2.1,1.64h-1v1.27a13.77,13.77,0,0,1-1.06,5.3l-1,2.27A15.45,15.45,0,0,0,9.35,59l4.72,2.48,4.1,0a6.93,6.93,0,0,1,3.33.88l2.15,1.2h2.9a7,7,0,0,1,3.58,1l1.27.77a9,9,0,0,0,4.08,1.27V65.31a6.41,6.41,0,0,1,3.85-5.88L43,57.82a3.92,3.92,0,0,1,2.72-.17l1.74.52a2.93,2.93,0,0,0,1.66,0L53.21,57a4,4,0,0,1,2.31,0l1.37.43A4.49,4.49,0,0,1,60,61.7v3.44a1.51,1.51,0,0,0,3,.42,20.07,20.07,0,0,0,.79-6.21V59a5.56,5.56,0,0,1,1.73-4.21l1.71-1.63a4.85,4.85,0,0,0,1.49-3.49V41.57a9,9,0,0,1,1.61-5.15l.82-1.17V33.64a9,9,0,0,1,1.59-5.13L74,26.62a2.48,2.48,0,0,1-.69-1.72Z"/><path class="c" d="M29.58,65.49a5.93,5.93,0,0,0-2.5-.8v3.25a6.87,6.87,0,0,1,3.05,1l2,1.19a6.15,6.15,0,0,0,3,.86.36.36,0,0,0,.27-.1.39.39,0,0,0,.12-.28v-2.9a9.94,9.94,0,0,1-4.62-1.41Z"/><path class="c" d="M21,63.32a5.89,5.89,0,0,0-2.75-.74v3.25a7,7,0,0,1,3.26.87l1.83,1V64.61l-.07,0Z"/><path class="c" d="M45.4,58.66a2.91,2.91,0,0,0-.83-.11V61.8A3.63,3.63,0,0,1,45.7,62l1.74.51a2.61,2.61,0,0,0,.68.11V59.33a4.08,4.08,0,0,1-1-.15Z"/><path class="c" d="M56.57,58.4,55.21,58a3,3,0,0,0-.94-.12V61.1a3.88,3.88,0,0,1,1.21.16l1.66.47A2.85,2.85,0,0,1,59,63.38V61.7A3.44,3.44,0,0,0,56.57,58.4Z"/><path class="c" d="M61.55,67.7l-.19,0v3.24l.25,0a2.18,2.18,0,0,0,2.09-1.53c0-.09,0-.18.08-.28V66.38A2.58,2.58,0,0,1,61.55,67.7Z"/><path class="c" d="M2.92,54.69v2.82a13.81,13.81,0,0,0,5.54,5.33l.87.46V60.18l-.47-.24A16.72,16.72,0,0,1,2.92,54.69Z"/><polygon class="c" points="11.39 61.27 11.39 64.38 13.7 65.6 13.7 62.48 13.69 62.48 11.39 61.27"/><path class="c" d="M60.44,50.45c0-.71-.85-1.3-2-1.47v2.94C59.59,51.75,60.44,51.16,60.44,50.45Z"/><path class="c" d="M55.06,50.45c0,.71.85,1.3,2,1.47V49C55.91,49.15,55.06,49.74,55.06,50.45Z"/><path class="d" d="M51.44,3.62c-1-.31-2,.23-3,.8a1.4,1.4,0,0,0-.69.93l-1.57,7.33a.38.38,0,0,0,.46.45c1.65-.38,3.22-1.82,4.87-1.31,1.85.56,3.69-1.78,5.54-1.75V1.62C55.2,1.63,53.29,4.18,51.44,3.62Z"/><path class="a" d="M75,26.09a1.43,1.43,0,0,1-.64-1.19V23.56a2.17,2.17,0,0,0-2.17-2.17h-.86a3,3,0,0,0-2.55,1.39L66,27.1a1.5,1.5,0,0,1-1.26.69H62.87a2.55,2.55,0,0,0-2.24,1.34,3.27,3.27,0,0,1-2.19,1.63V.69a.69.69,0,1,0-1.38,0V30.76a3.25,3.25,0,0,1-2.19-1.64,2.55,2.55,0,0,0-2.24-1.33H51.36A2.54,2.54,0,0,0,49,29.3l-1,2.36a1.05,1.05,0,0,1-1,.62,1,1,0,0,1-1-.62L45,29.3a2.55,2.55,0,0,0-2.33-1.51H6.92a.52.52,0,0,0-.53.52,1.12,1.12,0,0,1-1.11,1.12H3.73a.52.52,0,0,0-.52.52v1.8a12.63,12.63,0,0,1-1,4.89l-.95,2.27A16.79,16.79,0,0,0,0,45.33v5.23a15,15,0,0,0,.61,4.23,14.77,14.77,0,0,0,7.36,9l5.72,3a.53.53,0,0,0,.24.06l4.23,0a5.83,5.83,0,0,1,2.83.74l2.27,1.27a.59.59,0,0,0,.26.07h3a5.86,5.86,0,0,1,3,.84l2,1.19A7,7,0,0,0,35,72a1.44,1.44,0,0,0,1.05-.39,1.46,1.46,0,0,0,.45-1v-2a3.74,3.74,0,0,1,2.22-3.41l4.64-2a2.87,2.87,0,0,1,2-.13l1.74.52a4,4,0,0,0,2.26,0l4.11-1.22a2.88,2.88,0,0,1,1.67,0l1.67.47a1.82,1.82,0,0,1,1.32,1.75v4.07A3.45,3.45,0,0,0,61.61,72a3.23,3.23,0,0,0,3.09-2.26,24.68,24.68,0,0,0,1.17-7.53V60.48a4.51,4.51,0,0,1,1.41-3.27L69,55.59a5.85,5.85,0,0,0,1.81-4.23V41.71a7.3,7.3,0,0,1,1.3-4.17.54.54,0,0,0,.1-.3V35a7.31,7.31,0,0,1,1.28-4.15l1.7-2.46a.5.5,0,0,0,.09-.29V26.52A.46.46,0,0,0,75,26.09Zm-18,25.83c-1.15-.17-2-.76-2-1.47s.85-1.3,2-1.47ZM58.44,49c1.15.17,2,.76,2,1.47s-.85,1.3-2,1.47ZM9.33,63.3l-.87-.46a13.81,13.81,0,0,1-5.54-5.33V54.69a16.72,16.72,0,0,0,5.94,5.25l.47.24Zm4.37,2.3-2.31-1.22V61.27l2.3,1.21h0Zm9.63,2.13-1.83-1a7,7,0,0,0-3.26-.87V62.58a5.89,5.89,0,0,1,2.75.74l2.27,1.27.07,0Zm12.15.8v2a.39.39,0,0,1-.12.28.36.36,0,0,1-.27.1,6.15,6.15,0,0,1-3-.86l-2-1.19a6.87,6.87,0,0,0-3.05-1V64.69a5.93,5.93,0,0,1,2.5.8l1.28.77a9.94,9.94,0,0,0,4.62,1.41Zm12.64-6a2.61,2.61,0,0,1-.68-.11L45.7,62a3.63,3.63,0,0,0-1.13-.16V58.55a2.91,2.91,0,0,1,.83.11l1.74.52a4.08,4.08,0,0,0,1,.15Zm10.87.8a2.85,2.85,0,0,0-1.85-1.65l-1.66-.47a3.88,3.88,0,0,0-1.21-.16V57.85a3,3,0,0,1,.94.12l1.36.43A3.44,3.44,0,0,1,59,61.7Zm4.79,5.76c0,.1-.05.19-.08.28A2.18,2.18,0,0,1,61.61,71l-.25,0V67.68l.19,0a2.58,2.58,0,0,0,2.23-1.32Zm9-40.63a9,9,0,0,0-1.59,5.13v1.61l-.82,1.17a9,9,0,0,0-1.61,5.15v8.09a4.85,4.85,0,0,1-1.49,3.49l-1.71,1.63A5.56,5.56,0,0,0,63.79,59v.36A20.07,20.07,0,0,1,63,65.56a1.51,1.51,0,0,1-3-.42V61.7a4.49,4.49,0,0,0-3.15-4.3L55.52,57a4,4,0,0,0-2.31,0L49.1,58.17a2.93,2.93,0,0,1-1.66,0l-1.74-.52a3.92,3.92,0,0,0-2.72.17l-3.65,1.61a6.41,6.41,0,0,0-3.85,5.88v1.32a9,9,0,0,1-4.08-1.27l-1.27-.77a7,7,0,0,0-3.58-1h-2.9L21.5,62.4a6.93,6.93,0,0,0-3.33-.88l-4.1,0L9.35,59a15.45,15.45,0,0,1-7.1-19.69l1-2.27a13.77,13.77,0,0,0,1.06-5.3V30.48h1a2.17,2.17,0,0,0,2.1-1.64H42.7a1.5,1.5,0,0,1,1.37.89l1,2.36A2.11,2.11,0,0,0,47,33.33a2.07,2.07,0,0,0,1.91-1.24L50,29.72a1.5,1.5,0,0,1,1.36-.88h1.27a1.49,1.49,0,0,1,1.31.78,4.32,4.32,0,0,0,3.12,2.21V46.69c-2.11.23-3.73,1.49-3.73,3s2,3.06,4.42,3.06,4.43-1.37,4.43-3.06-1.63-2.8-3.74-3V31.83a4.32,4.32,0,0,0,3.12-2.21,1.49,1.49,0,0,1,1.31-.78h1.89a2.54,2.54,0,0,0,2.14-1.17l2.8-4.32a2,2,0,0,1,1.67-.91h.86a1.12,1.12,0,0,1,1.12,1.12V24.9A2.48,2.48,0,0,0,74,26.62Z"/></svg>